<svg width="20" height="25" viewBox="0 0 20 25" fill="none" xmlns="http://www.w3.org/2000/svg">
<g clip-path="url(#clip0_1_221)">
<path d="M5.83333 9.27334L8.285 10.7233C9.71417 11.5675 10.285 11.5675 11.715 10.7233L14.1667 9.27334" stroke="#141B34" stroke-width="1.25" stroke-linecap="round" stroke-linejoin="round"/>
<path d="M1.68 13.42C1.73333 15.9733 1.76167 17.2517 2.70417 18.1975C3.64667 19.1442 4.95833 19.1767 7.5825 19.2425C9.19917 19.2842 10.8 19.2842 12.4167 19.2425C15.0417 19.1767 16.3533 19.1442 17.2958 18.1983C18.2383 17.2517 18.2667 15.9742 18.3208 13.42C18.3367 12.5983 18.3367 11.7817 18.32 10.96C18.265 8.40667 18.2375 7.12834 17.295 6.1825C16.3533 5.23584 15.0417 5.20334 12.4175 5.1375C10.8064 5.09689 9.19447 5.09689 7.58333 5.1375C4.95833 5.20334 3.64667 5.23584 2.70417 6.18167C1.76167 7.12834 1.73333 8.40584 1.67917 10.96C1.66192 11.7799 1.6622 12.6001 1.68 13.42" stroke="#141B34" stroke-width="1.25" stroke-linejoin="round"/>
</g>
<defs>
<clipPath id="clip0_1_221">
<rect width="20" height="24" fill="white" transform="translate(0 0.190002)"/>
</clipPath>
</defs>
</svg>
