<svg width="18" height="17" viewBox="0 0 18 17" fill="none" xmlns="http://www.w3.org/2000/svg">
<path d="M8.52195 12.1549C6.00686 11.8733 4.26533 9.43967 4.86789 6.9348L8.52195 12.1549ZM9.00001 13.1818C5.79514 13.1818 2.99714 11.4724 1.50001 8.93176C2.17986 7.77811 3.12814 6.79608 4.26076 6.06745L3.40011 4.83799C2.0938 5.68908 0.997546 6.82992 0.207702 8.17023C0.0717175 8.40098 0 8.66394 0 8.93178C0 9.19962 0.0717175 9.46257 0.207702 9.69332C1.96889 12.6819 5.25439 14.6818 9.00001 14.6818C9.41412 14.6818 9.82785 14.6571 10.239 14.6078L9.23836 13.1783C9.15893 13.1805 9.07947 13.1817 9.00001 13.1818V13.1818ZM17.7923 9.69329C16.7538 11.4556 15.1854 12.8727 13.3063 13.7399L14.8099 15.888C14.9287 16.0577 14.8874 16.2915 14.7177 16.4103L14.0697 16.8639C13.9 16.9827 13.6662 16.9414 13.5474 16.7718L3.19014 1.97549C3.07136 1.80584 3.11264 1.57199 3.28229 1.45324L3.93033 0.999588C4.09998 0.880807 4.33383 0.922088 4.45258 1.09174L6.18776 3.57065C7.08164 3.31749 8.02526 3.18177 9.00001 3.18177C12.7456 3.18177 16.0311 5.18158 17.7923 8.17023C17.9283 8.40098 18 8.66393 18 8.93176C18 9.19959 17.9283 9.46254 17.7923 9.69329V9.69329ZM16.5 8.93176C15.1201 6.59011 12.6351 4.95458 9.74495 4.7128C9.43883 5.02796 9.25001 5.45771 9.25001 5.93177C9.25001 6.89827 10.0335 7.68176 11 7.68176C11.9665 7.68176 12.75 6.89827 12.75 5.93177L12.75 5.93045C13.7072 7.72036 13.2731 10.0011 11.596 11.2967L12.4302 12.4884C14.1446 11.7615 15.5721 10.5063 16.5 8.93176Z" fill="#666666"/>
</svg>
