<svg width="20" height="25" viewBox="0 0 20 25" fill="none" xmlns="http://www.w3.org/2000/svg">
<g clip-path="url(#clip0_1_231)">
<path d="M15 11.36C14.491 10.4215 13.5267 9.81907 12.46 9.77334C11.1766 9.71679 9.89213 9.68901 8.6075 9.69C7.2325 9.69 5.98417 9.71834 4.755 9.77334C3.29417 9.83667 2.09417 10.9292 1.89917 12.3242C1.77167 13.235 1.66667 14.1675 1.66667 15.1175C1.66667 16.0675 1.77167 17.0008 1.89917 17.9108C2.09417 19.3058 3.29417 20.3983 4.755 20.4633C5.35 20.4883 6.05 20.5083 6.66667 20.5233" stroke="#141B34" stroke-width="1.25" stroke-linecap="round"/>
<path d="M5 9.69V7.60667C5 5.53699 6.68032 3.85667 8.75 3.85667C10.8197 3.85667 12.5 5.53699 12.5 7.60667V9.69" stroke="#141B34" stroke-width="1.25" stroke-linecap="round" stroke-linejoin="round"/>
<path d="M17.6708 14.7767L17.1875 15.2708L17.67 14.7775M17.85 15.9208C18.1248 16.1708 18.548 16.1586 18.8081 15.8934C19.0681 15.6282 19.0719 15.2048 18.8167 14.935L17.85 15.9208ZM15.0192 14.7767L14.5358 14.285L15.0183 14.7758M15.1983 17.2233C15.4706 17.4901 15.9082 17.4856 16.175 17.2133C16.4418 16.9411 16.4373 16.5034 16.165 16.2367L15.1992 17.2233M11.8833 19.4917C11.4145 19.9468 10.6688 19.9468 10.2 19.4917L9.23167 20.4767C10.2378 21.4588 11.8438 21.4588 12.85 20.4767L11.8842 19.4917M10.2 19.4917C9.98096 19.2794 9.85732 18.9875 9.85732 18.6825C9.85732 18.3775 9.98096 18.0856 10.2 17.8733L9.23167 16.8883C8.7487 17.3604 8.47651 18.0073 8.47666 18.6827C8.47682 19.358 8.74931 20.0048 9.2325 20.4767L10.1992 19.4917M10.2 17.8733C10.6688 17.4182 11.4145 17.4182 11.8833 17.8733L12.8508 16.8883C11.8448 15.9067 10.2394 15.9067 9.23333 16.8883L10.1992 17.8733M11.8833 17.8733C12.1022 18.0857 12.2257 18.3776 12.2257 18.6825C12.2257 18.9874 12.1022 19.2793 11.8833 19.4917L12.8508 20.4767C13.3339 20.0047 13.6063 19.3579 13.6063 18.6825C13.6063 18.0071 13.3339 17.3603 12.8508 16.8883L11.8842 17.8733M17.1867 15.27L17.85 15.92L18.8167 14.9367L18.1542 14.2833L17.1875 15.27M12.8508 17.8733L14.84 15.9208L13.8725 14.935L11.8833 16.8883L12.8508 17.8733ZM14.84 15.9208L15.5025 15.27L14.5358 14.2842L13.8717 14.935L14.8392 15.9208M13.8725 15.9208L15.1975 17.2225L16.1667 16.2367L14.84 14.9358L13.8725 15.9208ZM18.1542 14.2842C17.8558 13.9917 17.5833 13.7217 17.3325 13.5342C17.0667 13.3342 16.7467 13.1667 16.345 13.1667V14.5467C16.3383 14.5642 16.3492 14.5467 16.3667 14.5533C16.3883 14.5617 16.4317 14.5842 16.505 14.6392C16.6633 14.7583 16.8608 14.9492 17.1867 15.27L18.1542 14.2842ZM15.5025 15.27C15.8292 14.9483 16.025 14.7583 16.185 14.6392C16.2275 14.6051 16.2739 14.5763 16.3233 14.5533C16.34 14.5458 16.3442 14.5467 16.345 14.5467V13.1667C15.9417 13.1667 15.6233 13.3342 15.3567 13.5342C15.1067 13.7217 14.8342 13.9917 14.535 14.2842L15.5025 15.27Z" fill="#141B34"/>
</g>
<defs>
<clipPath id="clip0_1_231">
<rect width="20" height="24" fill="white" transform="translate(0 0.190002)"/>
</clipPath>
</defs>
</svg>
