<svg width="28" height="33" viewBox="0 0 28 33" fill="none" xmlns="http://www.w3.org/2000/svg">
<path d="M21.4118 24.75H6.58824V14.025C6.58824 9.9 9.88235 6.6 14 6.6C18.1176 6.6 21.4118 9.9 21.4118 14.025V24.75ZM24.7059 23.1V14.025C24.7059 8.9595 21.1812 4.719 16.4706 3.597V2.475C16.4706 1.81859 16.2103 1.18906 15.747 0.724911C15.2836 0.260758 14.6552 0 14 0C13.3448 0 12.7164 0.260758 12.253 0.724911C11.7897 1.18906 11.5294 1.81859 11.5294 2.475V3.597C6.80235 4.719 3.29412 8.9595 3.29412 14.025V23.1L0 26.4V28.05H28V26.4L24.7059 23.1ZM14 33C14.8737 33 15.7115 32.6523 16.3293 32.0335C16.9471 31.4146 17.2941 30.5752 17.2941 29.7H10.7059C10.7059 30.5752 11.0529 31.4146 11.6707 32.0335C12.2885 32.6523 13.1263 33 14 33Z" fill="#226FFE"/>
</svg>
