<svg width="17" height="17" viewBox="0 0 17 17" fill="none" xmlns="http://www.w3.org/2000/svg">
<path d="M15.305 7.32382C15.9771 7.32382 16.4811 7.8279 16.4811 8.5C16.4811 8.83605 16.3551 9.13009 16.1451 9.34013C15.9351 9.55016 15.641 9.67618 15.305 9.67618L9.67611 9.67618L9.67611 15.305C9.67611 15.6411 9.55009 15.9351 9.34006 16.1452C9.13002 16.3552 8.83598 16.4812 8.49993 16.4812C7.82783 16.4812 7.32375 15.9771 7.32375 15.305L7.32375 9.67618L1.6949 9.67618C1.0228 9.67618 0.518725 9.1721 0.518725 8.5C0.518725 7.8279 1.0228 7.32382 1.6949 7.32382L7.32375 7.32382L7.32375 1.69497C7.32375 1.02287 7.82783 0.518795 8.49993 0.518795C9.17203 0.518795 9.67611 1.02287 9.67611 1.69497L9.67611 7.32382L15.305 7.32382Z" fill="white"/>
</svg>
