<svg width="43" height="43" viewBox="0 0 43 43" fill="none" xmlns="http://www.w3.org/2000/svg">
<path d="M21.5 0.642822C9.98085 0.642822 0.642822 9.98085 0.642822 21.5C0.642822 33.0191 9.98085 42.3571 21.5 42.3571C33.0191 42.3571 42.3571 33.0191 42.3571 21.5C42.3571 9.98085 33.0191 0.642822 21.5 0.642822ZM21.5 4.67969C30.7959 4.67969 38.3202 12.2026 38.3202 21.5C38.3202 24.3998 37.5881 27.1271 36.2984 29.5075C35.1712 27.2878 33.1425 25.5092 30.6314 24.7497C31.7763 22.9977 32.3911 20.9506 32.3911 18.8087C32.3911 12.7897 27.52 7.91759 21.5 7.91759C15.4809 7.91759 10.6088 12.7887 10.6088 18.8087C10.6088 20.9506 11.2236 22.9977 12.3686 24.7497C9.86059 25.5082 7.8303 27.2847 6.7014 29.5075C5.41188 27.1273 4.67969 24.4 4.67969 21.5C4.67969 12.2042 12.2026 4.67969 21.5 4.67969ZM14.7719 18.8087C14.7719 15.0929 17.7841 12.0806 21.5 12.0806C25.2158 12.0806 28.2281 15.0929 28.2281 18.8087C28.2281 22.5246 25.2158 25.5368 21.5 25.5368C17.7841 25.5368 14.7719 22.5246 14.7719 18.8087ZM9.73191 33.5217C9.85966 30.6624 12.2174 28.3833 15.1083 28.3833H16.3001C19.5243 30.1401 23.477 30.1395 26.7 28.3833H27.8917C30.7825 28.3833 33.1403 30.6624 33.268 33.5217C26.7295 39.923 16.2664 39.9188 9.73191 33.5217Z" fill="#226FFE"/>
</svg>
