<svg width="14" height="14" viewBox="0 0 14 14" fill="none" xmlns="http://www.w3.org/2000/svg">
<path d="M5.27058 0.406067C6.59558 0.406067 7.86631 0.932421 8.80322 1.86934C9.74014 2.80625 10.2665 4.07698 10.2665 5.40198C10.2665 6.63944 9.81302 7.77697 9.06747 8.65317L9.275 8.8607H9.88219L13.7252 12.7037L12.5723 13.8566L8.72929 10.0136V9.4064L8.52177 9.19888C7.64556 9.94443 6.50803 10.3979 5.27058 10.3979C3.94558 10.3979 2.67484 9.87155 1.73793 8.93463C0.801012 7.99772 0.274658 6.72698 0.274658 5.40198C0.274658 4.07698 0.801012 2.80625 1.73793 1.86934C2.67484 0.932421 3.94558 0.406067 5.27058 0.406067V0.406067ZM5.27058 1.94327C3.34907 1.94327 1.81186 3.48048 1.81186 5.40198C1.81186 7.32349 3.34907 8.8607 5.27058 8.8607C7.19208 8.8607 8.72929 7.32349 8.72929 5.40198C8.72929 3.48048 7.19208 1.94327 5.27058 1.94327Z" fill="#686B6F"/>
</svg>
